<?xml version="1.0" encoding="UTF-8"?>
<svg version="1.1" xmlns="http://www.w3.org/2000/svg" width="32" height="32">
<path d="M0 0 C10.56 0 21.12 0 32 0 C32 10.56 32 21.12 32 32 C21.44 32 10.88 32 0 32 C0 21.44 0 10.88 0 0 Z " fill="#020202" transform="translate(0,0)"/>
<path d="M0 0 C3.5625 0.1875 3.5625 0.1875 5.5625 2.1875 C5.00694444 6.74305556 5.00694444 6.74305556 3.5625 8.1875 C1.89632885 8.22813832 0.22861905 8.230221 -1.4375 8.1875 C-1.4375 8.8475 -1.4375 9.5075 -1.4375 10.1875 C-2.4275 10.1875 -3.4175 10.1875 -4.4375 10.1875 C-4.46439216 8.70843108 -4.48384621 7.22922517 -4.5 5.75 C-4.51160156 4.92628906 -4.52320313 4.10257813 -4.53515625 3.25390625 C-4.36839634 -0.27473335 -3.65003385 0.19909276 0 0 Z " fill="#5D5E68" transform="translate(15.4375,9.8125)"/>
<path d="M0 0 C1.65 0 3.3 0 5 0 C6 3 6 3 5 6 C3.68 5.67 2.36 5.34 1 5 C1.99 5 2.98 5 4 5 C4 4.34 4 3.68 4 3 C3.01 3 2.02 3 1 3 C0.67 2.01 0.34 1.02 0 0 Z " fill="#8A8B96" transform="translate(14,10)"/>
</svg>
